<?xml version="1.0" encoding="UTF-8" standalone="no"?>
<!-- Created with Inkscape (http://www.inkscape.org/) -->

<svg
   xmlns:dc="http://purl.org/dc/elements/1.1/"
   xmlns:cc="http://creativecommons.org/ns#"
   xmlns:rdf="http://www.w3.org/1999/02/22-rdf-syntax-ns#"
   xmlns:svg="http://www.w3.org/2000/svg"
   xmlns="http://www.w3.org/2000/svg"
   xmlns:xlink="http://www.w3.org/1999/xlink"
   xmlns:sodipodi="http://sodipodi.sourceforge.net/DTD/sodipodi-0.dtd"
   xmlns:inkscape="http://www.inkscape.org/namespaces/inkscape"
   version="1.0"
   width="500"
   height="499.99997"
   viewBox="-0.811 -0.732 1708 1708"
   id="svg11310"
   xml:space="preserve"
   sodipodi:version="0.32"
   inkscape:version="0.48.0 r9654"
   sodipodi:docname="Crystal_Clear_action_exit clicked.svg"
   inkscape:output_extension="org.inkscape.output.svg.inkscape"><metadata
   id="metadata52"><rdf:RDF><cc:Work
       rdf:about=""><dc:format>image/svg+xml</dc:format><dc:type
         rdf:resource="http://purl.org/dc/dcmitype/StillImage" /><dc:title></dc:title></cc:Work></rdf:RDF></metadata><sodipodi:namedview
   inkscape:window-height="672"
   inkscape:window-width="1152"
   inkscape:pageshadow="2"
   inkscape:pageopacity="0.0"
   guidetolerance="10.0"
   gridtolerance="10.0"
   objecttolerance="10.0"
   borderopacity="1.0"
   bordercolor="#666666"
   pagecolor="#ffffff"
   id="base"
   showgrid="false"
   inkscape:zoom="0.89056451"
   inkscape:cx="255.76617"
   inkscape:cy="243.34194"
   inkscape:window-x="0"
   inkscape:window-y="0"
   inkscape:current-layer="svg11310"
   inkscape:window-maximized="1" />
<defs
   id="defs11312"><linearGradient
   id="linearGradient5410"><stop
     style="stop-color:#6fff94;stop-opacity:1;"
     offset="0"
     id="stop5412" /><stop
     id="stop5414"
     offset="0.82189858"
     style="stop-color:#6fff94;stop-opacity:1;" /><stop
     style="stop-color:#717171;stop-opacity:1;"
     offset="1"
     id="stop5416" /></linearGradient><linearGradient
   id="linearGradient5402"><stop
     style="stop-color:#96ccff;stop-opacity:1;"
     offset="0"
     id="stop5404" /><stop
     id="stop5406"
     offset="0.85136908"
     style="stop-color:#96ccff;stop-opacity:1;" /><stop
     style="stop-color:#717171;stop-opacity:1;"
     offset="1"
     id="stop5408" /></linearGradient><linearGradient
   id="linearGradient5386"><stop
     id="stop5388"
     offset="0"
     style="stop-color:#6fff94;stop-opacity:1;" /><stop
     style="stop-color:#6fff94;stop-opacity:1;"
     offset="0.73047894"
     id="stop5390" /><stop
     id="stop5392"
     offset="1"
     style="stop-color:#717171;stop-opacity:1;" /></linearGradient><linearGradient
   id="linearGradient5368"><stop
     style="stop-color:#ffffff;stop-opacity:1;"
     offset="0"
     id="stop5370" /><stop
     id="stop5376"
     offset="0.872563"
     style="stop-color:#ffffff;stop-opacity:1;" /><stop
     style="stop-color:#b7b7b7;stop-opacity:1;"
     offset="1"
     id="stop5372" /></linearGradient><inkscape:perspective
   sodipodi:type="inkscape:persp3d"
   inkscape:vp_x="0 : 249.99998 : 1"
   inkscape:vp_y="0 : 1000 : 0"
   inkscape:vp_z="500 : 249.99998 : 1"
   inkscape:persp3d-origin="250 : 166.66666 : 1"
   id="perspective54" /><linearGradient
   id="linearGradient19837"><stop
     style="stop-color: rgb(180, 0, 0); stop-opacity: 1;"
     offset="0"
     id="stop19839" /><stop
     style="stop-color: rgb(180, 0, 0); stop-opacity: 0;"
     offset="1"
     id="stop19841" /></linearGradient><linearGradient
   id="linearGradient14977"><stop
     style="stop-color: white; stop-opacity: 0.470588;"
     offset="0"
     id="stop14979" /><stop
     style="stop-color: white; stop-opacity: 0.705882;"
     offset="1"
     id="stop14981" /></linearGradient><linearGradient
   id="linearGradient14071"><stop
     style="stop-color: white; stop-opacity: 1;"
     offset="0"
     id="stop14073" /><stop
     style="stop-color: white; stop-opacity: 0;"
     offset="1"
     id="stop14075" /></linearGradient><linearGradient
   id="linearGradient14012"><stop
     style="stop-color: rgb(220, 0, 0); stop-opacity: 1;"
     offset="0"
     id="stop14014" /><stop
     style="stop-color:#e5734f;stop-opacity:1;"
     offset="1"
     id="stop14016" /></linearGradient><linearGradient
   id="linearGradient14004"><stop
     style="stop-color: white; stop-opacity: 1;"
     offset="0"
     id="stop14006" /><stop
     style="stop-color: white; stop-opacity: 0;"
     offset="1"
     id="stop14008" /></linearGradient>
<linearGradient
   x1="1531.1748"
   y1="-710.26196"
   x2="514.25446"
   y2="1775.3436"
   id="linearGradient14010"
   xlink:href="#linearGradient14004"
   gradientUnits="userSpaceOnUse"
   gradientTransform="matrix(0.995461,0,0,0.995461,3.8338,3.9129)" /><linearGradient
   x1="1026.7279"
   y1="1147.7113"
   x2="1703.623"
   y2="1703.6219"
   id="linearGradient14022"
   xlink:href="#linearGradient14012"
   gradientUnits="userSpaceOnUse"
   gradientTransform="matrix(0.995461,0,0,0.995461,3.8338,3.9129)" /><linearGradient
   x1="853.22852"
   y1="6994.7397"
   x2="853.22852"
   y2="-1149.4908"
   id="linearGradient14077"
   xlink:href="#linearGradient14071"
   gradientUnits="userSpaceOnUse" /><linearGradient
   x1="1678.5588"
   y1="288.91214"
   x2="1678.5588"
   y2="1417.6237"
   id="linearGradient19843"
   xlink:href="#linearGradient19837"
   gradientUnits="userSpaceOnUse" /><linearGradient
   inkscape:collect="always"
   xlink:href="#linearGradient19837"
   id="linearGradient3207"
   gradientUnits="userSpaceOnUse"
   x1="1678.5588"
   y1="288.91214"
   x2="1678.5588"
   y2="1417.6237"
   gradientTransform="translate(-5.21045e-5,4.61273e-5)" /><linearGradient
   inkscape:collect="always"
   xlink:href="#linearGradient14004"
   id="linearGradient3222"
   gradientUnits="userSpaceOnUse"
   gradientTransform="matrix(0.995461,0,0,0.995461,3.8337479,3.9129461)"
   x1="1531.1748"
   y1="-710.26196"
   x2="514.25446"
   y2="1775.3436" /><linearGradient
   inkscape:collect="always"
   xlink:href="#linearGradient14012"
   id="linearGradient3225"
   gradientUnits="userSpaceOnUse"
   gradientTransform="matrix(0.995461,0,0,0.995461,3.8337479,3.9129461)"
   x1="971.02051"
   y1="1066.0071"
   x2="1581.0668"
   y2="1614.4901" /><linearGradient
   inkscape:collect="always"
   xlink:href="#linearGradient14012"
   id="linearGradient3263"
   gradientUnits="userSpaceOnUse"
   gradientTransform="matrix(0.995461,0,0,0.995461,3.8337479,3.9129461)"
   x1="971.02051"
   y1="1066.0071"
   x2="1581.0668"
   y2="1614.4901" /><linearGradient
   inkscape:collect="always"
   xlink:href="#linearGradient14004"
   id="linearGradient3265"
   gradientUnits="userSpaceOnUse"
   gradientTransform="matrix(0.995461,0,0,0.995461,3.8337479,3.9129461)"
   x1="1531.1748"
   y1="-710.26196"
   x2="514.25446"
   y2="1775.3436" /><linearGradient
   inkscape:collect="always"
   xlink:href="#linearGradient19837"
   id="linearGradient3267"
   gradientUnits="userSpaceOnUse"
   gradientTransform="translate(-5.21045e-5,4.61273e-5)"
   x1="1678.5588"
   y1="288.91214"
   x2="1678.5588"
   y2="1417.6237" /><linearGradient
   inkscape:collect="always"
   xlink:href="#linearGradient19837"
   id="linearGradient3275"
   gradientUnits="userSpaceOnUse"
   gradientTransform="matrix(-0.9350649,0,0,-0.9350649,1684.3372,1687.5368)"
   x1="1678.5588"
   y1="288.91214"
   x2="1678.5588"
   y2="1417.6237" /><linearGradient
   inkscape:collect="always"
   xlink:href="#linearGradient14004"
   id="linearGradient3290"
   gradientUnits="userSpaceOnUse"
   gradientTransform="matrix(-0.9308206,0,0,-0.9308206,1680.7524,1683.878)"
   x1="1531.1748"
   y1="-710.26196"
   x2="367.30038"
   y2="1449.6616" /><linearGradient
   inkscape:collect="always"
   xlink:href="#linearGradient14012"
   id="linearGradient3293"
   gradientUnits="userSpaceOnUse"
   gradientTransform="matrix(-0.9308206,0,0,-0.9308206,1680.7524,1683.878)"
   x1="971.02051"
   y1="1066.0071"
   x2="1581.0668"
   y2="1614.4901" /><filter
   inkscape:collect="always"
   id="filter3324"><feGaussianBlur
     inkscape:collect="always"
     stdDeviation="32.981822"
     id="feGaussianBlur3326" /></filter><radialGradient
   inkscape:collect="always"
   xlink:href="#linearGradient5410"
   id="radialGradient5374"
   cx="849.48651"
   cy="1006.9586"
   fx="849.48651"
   fy="1006.9586"
   r="544.534"
   gradientTransform="matrix(1.1338385,0,0,1.1557909,-114.07741,-157.58675)"
   gradientUnits="userSpaceOnUse" /><radialGradient
   inkscape:collect="always"
   xlink:href="#linearGradient5386"
   id="radialGradient5384"
   cx="847.18549"
   cy="584.29669"
   fx="847.18549"
   fy="584.29669"
   r="75.446861"
   gradientTransform="matrix(1.3063724,0,0,6.6902336,-259.55424,-3271.7803)"
   gradientUnits="userSpaceOnUse" /></defs>
















<path
   d="m 1664.4504,348.30257 c 0,-69.97812 -27.7989,-137.09024 -77.2813,-186.57263 C 1537.6867,112.24755 1470.5747,84.4486 1400.5965,84.4486 l -1055.41951,0 c -69.97905,0 -137.09117,27.79895 -186.57356,77.28134 C 109.12197,211.21233 81.3221,278.32445 81.3221,348.30257 l 0,1055.41853 c 0,69.9791 27.79894,137.0912 77.28133,186.5726 49.48239,49.4825 116.59451,77.2815 186.57356,77.2815 l 1055.41861,0 c 69.9791,0 137.0903,-27.799 186.5726,-77.2815 49.4824,-49.4814 77.2813,-116.5944 77.2813,-186.5726 l 0,-1055.41853 9e-4,0 z"
   style="fill:#000000;fill-opacity:0.50196078;fill-rule:evenodd;display:inline;filter:url(#filter3324)"
   id="path3302"
   inkscape:connector-curvature="0" /><path
   id="path17680"
   style="fill:none;stroke:#e83131;stroke-width:9.58254528;stroke-linecap:round;stroke-linejoin:round;stroke-miterlimit:100;stroke-opacity:0.66666697;stroke-dasharray:none"
   d="m 358.8409,98.11178 c -145.7226,0 -263.854804,118.1312 -263.854804,263.8549"
   inkscape:connector-curvature="0" /><path
   id="path17682"
   style="fill:none;stroke:#e83131;stroke-width:9.58254528;stroke-linecap:round;stroke-linejoin:round;stroke-miterlimit:100;stroke-opacity:0.66666697;stroke-dasharray:none"
   d="m 1678.1144,361.96668 c 0,-145.7237 -118.1322,-263.8549 -263.8549,-263.8549"
   inkscape:connector-curvature="0" /><line
   stroke-miterlimit="500"
   x1="1414.2595"
   y1="98.111671"
   x2="358.84073"
   y2="98.111671"
   id="line17684"
   style="fill:none;stroke:#e83131;stroke-width:9.58254528;stroke-linecap:round;stroke-linejoin:round;stroke-miterlimit:100;stroke-opacity:0.66666697;stroke-dasharray:none" /><line
   stroke-miterlimit="500"
   x1="1678.1144"
   y1="1417.3853"
   x2="1678.1144"
   y2="361.96664"
   id="line17690"
   style="fill:none;stroke:#e83131;stroke-width:9.58254528;stroke-linecap:round;stroke-linejoin:round;stroke-miterlimit:100;stroke-opacity:0.66666697;stroke-dasharray:none" /><line
   stroke-miterlimit="500"
   x1="94.985756"
   y1="361.96664"
   x2="94.985756"
   y2="1417.3853"
   id="line17700"
   style="fill:none;stroke:#e83131;stroke-width:9.58254528;stroke-linecap:round;stroke-linejoin:round;stroke-miterlimit:100;stroke-opacity:0.66666697;stroke-dasharray:none" /><path
   id="path17668"
   style="fill:url(#linearGradient3293);fill-opacity:1;fill-rule:evenodd;display:inline"
   d="m 94.986096,1417.3852 c 0,69.9781 27.798904,137.0903 77.281304,186.5727 49.4824,49.4824 116.5944,77.2813 186.5726,77.2813 l 1055.4195,0 c 69.9791,0 137.0912,-27.7989 186.5736,-77.2813 49.4814,-49.4824 77.2813,-116.5946 77.2813,-186.5727 l 0,-1055.41852 c 0,-69.9791 -27.7989,-137.0912 -77.2813,-186.5726 -49.4824,-49.4825 -116.5945,-77.2815 -186.5736,-77.2815 l -1055.4186,0 c -69.9791,0 -137.0903,27.799 -186.5726,77.2815 -49.4824,49.4814 -77.281304,116.5944 -77.281304,186.5726 l 0,1055.41852 -9e-4,0 z"
   inkscape:connector-curvature="0" /><path
   id="path17670"
   style="fill:url(#linearGradient3290);fill-opacity:1;fill-rule:evenodd;display:inline"
   d="m 94.986096,1417.3852 c 0,145.7227 118.132204,263.854 263.854804,263.854 l 1055.4186,0 c 145.7227,9e-4 263.8549,-118.1313 263.8549,-263.854 l 0,-791.56372 C 1044.4996,575.95098 435.2584,880.57113 94.986096,1417.3852 z"
   inkscape:connector-curvature="0" /><path
   id="path11342"
   style="fill:#ffffff;fill-opacity:0.25842698;fill-rule:evenodd"
   d="m 358.8409,124.49768 c -131.805,9.7457 -240.3266,107.4149 -263.854804,237.469 0,-145.7237 118.132204,-263.8549 263.854804,-263.8549 l 1055.4186,0 c 145.7227,0 263.8549,118.1312 263.8549,263.8549 -23.5274,-130.0541 -132.0499,-227.7233 -263.8549,-237.469 l -1055.4186,0 z"
   inkscape:connector-curvature="0" /><path
   id="path17676"
   style="fill:#ffffff;fill-opacity:0.58823494;fill-rule:evenodd"
   d="m 358.8409,124.49768 c -131.805,9.7457 -240.3266,107.4149 -263.854804,237.469 0,-145.7237 118.132204,-263.8549 263.854804,-263.8549 l 1055.4186,0 c 145.7227,0 263.8549,118.1312 263.8549,263.8549 -23.5274,-130.0541 -132.0499,-227.7233 -263.8549,-237.469 l -1055.4186,0 z"
   inkscape:connector-curvature="0" /><path
   id="path17696"
   style="fill:none;stroke:#e83131;stroke-width:6.86851168;stroke-linecap:round;stroke-linejoin:round;stroke-miterlimit:100;stroke-opacity:0.66666697;stroke-dasharray:none"
   d="m 94.986096,1417.3852 c 0,147.2844 110.455704,265.2433 260.016504,264.5491 l 1059.2569,-0.6942 m 0,0 c 145.7227,0 263.8549,-118.1322 263.8549,-263.8549"
   inkscape:connector-curvature="0" /><path
   id="path11324"
   style="fill:#b40000;fill-opacity:0.58823494;fill-rule:evenodd"
   d="m 1678.1144,361.96668 c -21.8585,0 -39.5785,236.2626 -39.5785,527.70971 0,291.44531 17.72,527.70881 39.5785,527.70881 l 0,-1055.41852 0,0 z"
   inkscape:connector-curvature="0" /><path
   id="path11322"
   style="fill:url(#linearGradient3275);fill-opacity:1;fill-rule:evenodd"
   d="m 94.986096,361.96668 c 21.858404,0 39.579404,236.2626 39.579404,527.70971 0,291.44531 -17.7201,527.70881 -39.579404,527.70881 l 0,-1055.41852 z"
   inkscape:connector-curvature="0" /><g
   id="g4846"><path
     d="m 676.81682,574.38805 c -196.41298,93.00751 -280.2193,327.58453 -187.18723,523.94345 93.03207,196.3589 327.67471,280.1422 524.08771,187.1357 196.4129,-93.0075 280.2193,-327.58452 187.1871,-523.94344 -38.906,-82.11788 -105.0467,-148.23937 -187.1871,-187.13467 -37.65673,-17.83184 -53.72527,-62.80535 -35.88852,-100.45265 17.83675,-37.64732 62.82262,-53.71048 100.48132,-35.87864 271.7273,128.67015 387.6688,453.19626 258.9622,724.8487 C 1208.5666,1434.559 883.95232,1550.4686 612.22397,1421.7974 340.49772,1293.1283 224.55624,968.60223 353.26181,696.94972 407.08623,583.34414 498.58815,491.8674 612.22501,438.0578 c 37.65769,-17.83184 82.64357,-1.76868 100.48033,35.87864 17.83674,37.6473 1.76811,82.62081 -35.88852,100.45161 z"
     style="fill:url(#radialGradient5374);fill-opacity:1;fill-rule:evenodd;display:inline"
     id="path17672"
     inkscape:connector-curvature="0" /><path
     d="m 769.82071,804.42005 c 0,51.74777 33.77803,93.69717 75.44686,93.69717 41.66783,0 75.44686,-41.9494 75.44686,-93.69717 l 0,-468.48846 c 0,-51.74777 -33.77903,-93.69846 -75.44686,-93.69846 -41.66779,0 -75.44686,41.94939 -75.44686,93.69846 l 0,468.48846 z"
     style="fill:url(#radialGradient5384);fill-opacity:1;fill-rule:evenodd;display:inline"
     id="path17674"
     inkscape:connector-curvature="0" /></g></svg>